<svg xmlns:xlink="http://www.w3.org/1999/xlink" xmlns="http://www.w3.org/2000/svg" width="25" height="19.47" viewBox="0 0 49 38.163">
  <g id="Group_595" data-name="Group 595" transform="translate(-197 -6339)">
    <path id="Path_43" data-name="Path 43" d="M0,0H49V23.039L33.5,38.163H0Z" transform="translate(197 6339)" fill="#297cf0"/>
    <g id="icons" transform="translate(211.658 6347)">
      <path id="photo" d="M15.073,6.127h-.313a.751.751,0,0,1-.7-.469l-.938-1.8A1.477,1.477,0,0,0,11.711,3h-4.3A1.647,1.647,0,0,0,6,3.86l-.86,1.8a.751.751,0,0,1-.7.469H4.127A3.137,3.137,0,0,0,1,9.255v4.691a3.137,3.137,0,0,0,3.127,3.127H15.073A3.137,3.137,0,0,0,18.2,13.946V9.255A3.137,3.137,0,0,0,15.073,6.127ZM9.6,13.946a3.127,3.127,0,1,1,3.127-3.127A3.137,3.137,0,0,1,9.6,13.946Z" transform="translate(0 0)" fill="#fff"/>
    </g>
  </g>
</svg>