<svg xmlns:xlink="http://www.w3.org/1999/xlink" xmlns="http://www.w3.org/2000/svg" width="25" height="19.47" viewBox="0 0 49 38.163">
  <g id="Group_596" data-name="Group 596" transform="translate(-197 -6339)">
    <path id="Path_43" data-name="Path 43" d="M0,0H49V23.039L33.5,38.163H0Z" transform="translate(197 6339)" fill="#6e29f0"/>
    <path id="_2559773_camera_media_video_icon" data-name="2559773_camera_media_video_icon" d="M16.895,5.668a.308.308,0,0,0-.361,0l-2.528,2.06V6.812A2.157,2.157,0,0,0,11.911,4.6H2.594A2.157,2.157,0,0,0,.5,6.812v6.865A2.157,2.157,0,0,0,2.594,15.89h9.317a2.157,2.157,0,0,0,2.094-2.212v-.915l2.528,2.06a.308.308,0,0,0,.361,0c.144-.076.217-.153.217-.305V5.973C17.111,5.821,17.039,5.744,16.895,5.668Z" transform="translate(212.694 6346.4)" fill="#fff"/>
    <rect id="Rectangle_250" data-name="Rectangle 250" width="8" height="2" rx="1" transform="translate(216 6354)" fill="#6e29f0"/>
    <rect id="Rectangle_251" data-name="Rectangle 251" width="4" height="2" rx="1" transform="translate(216 6357)" fill="#6e29f0"/>
  </g>
</svg>